<svg xmlns="http://www.w3.org/2000/svg" viewBox="0 0 280 120" role="img" aria-label="Yavar logo">
  <rect width="280" height="120" fill="#ffffff"/>
  <g transform="translate(28,84)">
    <path d="M8-40l12 40h10l12-40h-9l-8 28-8-28z" fill="#111827"/>
    <path d="M53-24c0-11 8-18 19-18 6 0 11 2 14 6v-4h8V0h-8v-4c-3 4-8 6-14 6-11 0-19-7-19-18zm34 0c0-7-5-11-13-11s-13 4-13 11 5 11 13 11 13-4 13-11z" fill="#111827"/>
    <path d="M106-40h8v6c3-5 8-7 14-7v8h-2c-7 0-12 3-12 12V0h-8z" fill="#111827"/>
    <path d="M135-24c0-11 8-18 19-18 6 0 11 2 14 6v-4h8V0h-8v-4c-3 4-8 6-14 6-11 0-19-7-19-18zm34 0c0-7-5-11-13-11s-13 4-13 11 5 11 13 11 13-4 13-11z" fill="#111827"/>
    <path d="M186-40h9l12 31 12-31h9L212 0h-10z" fill="#111827"/>
  </g>
  <path d="M240 16h20v20h-8V30l-14 14-6-6 14-14h-6z" fill="#7c3aed"/>
</svg>
